<svg xmlns="http://www.w3.org/2000/svg" viewBox="0 0 1800 1100" width="1800" height="1100" font-family="Segoe UI, Arial, sans-serif">
  <defs>
    <marker id="arr" markerWidth="8" markerHeight="6" refX="8" refY="3" orient="auto"><polygon points="0 0,8 3,0 6" fill="#555"/></marker>
    <marker id="arrO" markerWidth="8" markerHeight="6" refX="8" refY="3" orient="auto"><polygon points="0 0,8 3,0 6" fill="#F58534"/></marker>
    <marker id="arrT" markerWidth="8" markerHeight="6" refX="8" refY="3" orient="auto"><polygon points="0 0,8 3,0 6" fill="#00bfb3"/></marker>
    <marker id="arrD" markerWidth="8" markerHeight="6" refX="8" refY="3" orient="auto"><polygon points="0 0,8 3,0 6" fill="#1a1a2e"/></marker>
    <marker id="arrK" markerWidth="8" markerHeight="6" refX="8" refY="3" orient="auto"><polygon points="0 0,8 3,0 6" fill="#231f20"/></marker>
    <marker id="arrR" markerWidth="8" markerHeight="6" refX="8" refY="3" orient="auto"><polygon points="0 0,8 3,0 6" fill="#dc382d"/></marker>
    <marker id="arrP" markerWidth="8" markerHeight="6" refX="8" refY="3" orient="auto"><polygon points="0 0,8 3,0 6" fill="#9673a6"/></marker>
    <marker id="arrY" markerWidth="8" markerHeight="6" refX="8" refY="3" orient="auto"><polygon points="0 0,8 3,0 6" fill="#FFCA28"/></marker>
  </defs>

  <!-- Background -->
  <rect width="1800" height="1100" fill="#f8f9fa" rx="8"/>

  <!-- Title -->
  <text x="900" y="40" text-anchor="middle" font-size="22" font-weight="bold" fill="#1a1a2e">IUH Campus Exchange Platform — System Architecture</text>
  <text x="900" y="62" text-anchor="middle" font-size="13" fill="#888">Node.js Microservices · Docker · MongoDB · Kafka · Redis</text>

  <!-- ═══════════ ZONE: Client & CDN ═══════════ -->
  <rect x="30" y="85" width="320" height="460" rx="12" fill="#e8f0fe" stroke="#6c8ebf" stroke-width="1.5" stroke-dasharray="6,4" opacity="0.45"/>
  <text x="190" y="110" text-anchor="middle" font-size="13" font-weight="bold" fill="#6c8ebf">Client &amp; CDN</text>

  <!-- User icons (small) -->
  <circle cx="100" cy="180" r="16" fill="#6c8ebf" opacity="0.2"/>
  <circle cx="100" cy="174" r="6" fill="#6c8ebf"/>
  <ellipse cx="100" cy="190" rx="10" ry="6" fill="#6c8ebf"/>
  <text x="100" y="215" text-anchor="middle" font-size="11" font-weight="bold" fill="#333">User A</text>
  <text x="100" y="228" text-anchor="middle" font-size="9" fill="#888">Web</text>

  <circle cx="250" cy="180" r="16" fill="#6c8ebf" opacity="0.2"/>
  <circle cx="250" cy="174" r="6" fill="#6c8ebf"/>
  <ellipse cx="250" cy="190" rx="10" ry="6" fill="#6c8ebf"/>
  <text x="250" y="215" text-anchor="middle" font-size="11" font-weight="bold" fill="#333">User B</text>
  <text x="250" y="228" text-anchor="middle" font-size="9" fill="#888">Mobile</text>

  <!-- CDN Box -->
  <rect x="90" y="310" width="200" height="55" rx="6" fill="#F58534"/>
  <text x="190" y="335" text-anchor="middle" font-size="13" font-weight="bold" fill="#fff">Cloudflare CDN</text>
  <text x="190" y="352" text-anchor="middle" font-size="10" fill="#ffe0c0">Static Assets · SSL</text>

  <!-- Users -> CDN -->
  <line x1="110" y1="232" x2="150" y2="310" stroke="#6c8ebf" stroke-width="1.5" marker-end="url(#arr)"/>
  <line x1="240" y1="232" x2="230" y2="310" stroke="#6c8ebf" stroke-width="1.5" marker-end="url(#arr)"/>

  <!-- CDN -> Gateway & WS (labels separate) -->
  <line x1="290" y1="330" x2="430" y2="200" stroke="#F58534" stroke-width="2" marker-end="url(#arrO)"/>
  <line x1="290" y1="345" x2="430" y2="370" stroke="#F58534" stroke-width="2" marker-end="url(#arrO)"/>

  <!-- Protocol labels (positioned clearly) -->
  <rect x="310" y="240" width="90" height="22" rx="4" fill="#fff" stroke="#ddd" stroke-width="0.5"/>
  <text x="355" y="256" text-anchor="middle" font-size="10" font-weight="bold" fill="#F58534">HTTPS/REST</text>
  <rect x="310" y="360" width="72" height="22" rx="4" fill="#fff" stroke="#ddd" stroke-width="0.5"/>
  <text x="346" y="376" text-anchor="middle" font-size="10" font-weight="bold" fill="#F58534">WebSocket</text>

  <!-- ═══════════ ZONE: Auto Scaling Group ═══════════ -->
  <rect x="430" y="85" width="740" height="460" rx="12" fill="#f5f5f5" stroke="#bbb" stroke-width="1.5" stroke-dasharray="6,4" opacity="0.4"/>
  <text x="800" y="110" text-anchor="middle" font-size="13" font-weight="bold" fill="#999">Auto Scaling Group</text>

  <!-- API Gateway -->
  <rect x="460" y="150" width="140" height="100" rx="6" fill="#F58534"/>
  <text x="530" y="175" text-anchor="middle" font-size="13" font-weight="bold" fill="#fff">API Gateway</text>
  <text x="530" y="193" text-anchor="middle" font-size="9" fill="#ffe0c0">Rate Limiting</text>
  <text x="530" y="208" text-anchor="middle" font-size="9" fill="#ffe0c0">Auth Filter</text>
  <text x="530" y="223" text-anchor="middle" font-size="9" fill="#ffe0c0">Circuit Breaker</text>
  <text x="530" y="238" text-anchor="middle" font-size="9" fill="#ffe0c0">Request Logging</text>

  <!-- WS Gateway -->
  <rect x="460" y="340" width="140" height="80" rx="6" fill="#F58534"/>
  <text x="530" y="365" text-anchor="middle" font-size="13" font-weight="bold" fill="#fff">WS Gateway</text>
  <text x="530" y="383" text-anchor="middle" font-size="9" fill="#ffe0c0">WebSocket · Sticky Session</text>
  <text x="530" y="398" text-anchor="middle" font-size="9" fill="#ffe0c0">Redis Pub/Sub</text>

  <!-- Load Balancer (small, between gateways and services) -->
  <rect x="510" y="275" width="80" height="35" rx="4" fill="#e0e0e0" stroke="#999" stroke-width="1"/>
  <text x="550" y="297" text-anchor="middle" font-size="10" font-weight="bold" fill="#555">LB</text>

  <!-- Gateway -> LB -->
  <line x1="530" y1="250" x2="550" y2="275" stroke="#999" stroke-width="1.2" marker-end="url(#arr)"/>
  <line x1="530" y1="340" x2="550" y2="310" stroke="#999" stroke-width="1.2" marker-end="url(#arr)"/>

  <!-- Microservices (2 rows × 3) -->
  <!-- Row 1 -->
  <rect x="680" y="130" width="140" height="55" rx="6" fill="#4A90D9"/>
  <text x="750" y="162" text-anchor="middle" font-size="13" font-weight="bold" fill="#fff">User Service</text>
  <text x="750" y="178" text-anchor="middle" font-size="9" fill="#c0d8f0">:3001</text>

  <rect x="860" y="130" width="140" height="55" rx="6" fill="#4A90D9"/>
  <text x="930" y="162" text-anchor="middle" font-size="13" font-weight="bold" fill="#fff">Product Service</text>
  <text x="930" y="178" text-anchor="middle" font-size="9" fill="#c0d8f0">:3002</text>

  <rect x="1040" y="130" width="140" height="55" rx="6" fill="#4A90D9"/>
  <text x="1110" y="162" text-anchor="middle" font-size="13" font-weight="bold" fill="#fff">Order Service</text>
  <text x="1110" y="178" text-anchor="middle" font-size="9" fill="#c0d8f0">:3003</text>

  <!-- Row 2 -->
  <rect x="680" y="220" width="140" height="55" rx="6" fill="#4A90D9"/>
  <text x="750" y="252" text-anchor="middle" font-size="13" font-weight="bold" fill="#fff">Chat Service</text>
  <text x="750" y="268" text-anchor="middle" font-size="9" fill="#c0d8f0">:3005</text>

  <rect x="860" y="220" width="140" height="55" rx="6" fill="#4A90D9"/>
  <text x="930" y="247" text-anchor="middle" font-size="12" font-weight="bold" fill="#fff">Notification</text>
  <text x="930" y="265" text-anchor="middle" font-size="13" font-weight="bold" fill="#fff">Service :3004</text>

  <rect x="1040" y="220" width="140" height="55" rx="6" fill="#4A90D9"/>
  <text x="1110" y="247" text-anchor="middle" font-size="12" font-weight="bold" fill="#fff">Lost &amp; Found</text>
  <text x="1110" y="265" text-anchor="middle" font-size="13" font-weight="bold" fill="#fff">Service :3006</text>

  <!-- LB -> Services -->
  <line x1="580" y1="290" x2="680" y2="157" stroke="#F58534" stroke-width="1.5" marker-end="url(#arrO)"/>
  <line x1="580" y1="295" x2="680" y2="157" stroke="#F58534" stroke-width="1.5" marker-end="url(#arrO)"/>
  <line x1="590" y1="295" x2="860" y2="157" stroke="#F58534" stroke-width="1.5" marker-end="url(#arrO)"/>
  <line x1="590" y1="300" x2="1040" y2="157" stroke="#F58534" stroke-width="1.5" marker-end="url(#arrO)"/>
  <line x1="560" y1="310" x2="680" y2="247" stroke="#F58534" stroke-width="1.5" stroke-dasharray="5,3" marker-end="url(#arrO)"/>
  <line x1="570" y1="310" x2="860" y2="247" stroke="#F58534" stroke-width="1.5" marker-end="url(#arrO)"/>
  <line x1="575" y1="310" x2="1040" y2="247" stroke="#F58534" stroke-width="1.5" marker-end="url(#arrO)"/>

  <!-- WS Gateway -> Chat (dashed) -->
  <line x1="600" y1="370" x2="680" y2="247" stroke="#F58534" stroke-width="1.8" stroke-dasharray="6,3" marker-end="url(#arrO)"/>

  <!-- Chat Service detail box -->
  <rect x="680" y="310" width="140" height="60" rx="6" fill="#fff" stroke="#4A90D9" stroke-width="1" stroke-dasharray="4,2"/>
  <text x="750" y="330" text-anchor="middle" font-size="10" fill="#555">Real-time Chat</text>
  <text x="750" y="345" text-anchor="middle" font-size="10" fill="#555">Redis Pub/Sub</text>
  <text x="750" y="360" text-anchor="middle" font-size="10" fill="#555">WebSocket</text>

  <!-- ═══════════ ZONE: Data & Messaging ═══════════ -->
  <rect x="430" y="570" width="740" height="460" rx="12" fill="#fff8e1" stroke="#d6b656" stroke-width="1.5" stroke-dasharray="6,4" opacity="0.45"/>
  <text x="800" y="595" text-anchor="middle" font-size="13" font-weight="bold" fill="#d6b656">Data &amp; Messaging Layer</text>

  <!-- MongoDB cluster label -->
  <text x="620" y="625" text-anchor="middle" font-size="11" font-weight="bold" fill="#1a1a2e">MongoDB (per service)</text>

  <!-- MongoDB databases (horizontal, compact) -->
  <g>
    <rect x="460" y="640" width="95" height="50" rx="4" fill="#1a1a2e"/>
    <text x="507" y="662" text-anchor="middle" font-size="11" font-weight="bold" fill="#fff">Users</text>
    <text x="507" y="680" text-anchor="middle" font-size="9" fill="#888">user-service</text>
  </g>
  <g>
    <rect x="570" y="640" width="95" height="50" rx="4" fill="#1a1a2e"/>
    <text x="617" y="662" text-anchor="middle" font-size="11" font-weight="bold" fill="#fff">Products</text>
    <text x="617" y="680" text-anchor="middle" font-size="9" fill="#888">product-service</text>
  </g>
  <g>
    <rect x="680" y="640" width="95" height="50" rx="4" fill="#1a1a2e"/>
    <text x="727" y="662" text-anchor="middle" font-size="11" font-weight="bold" fill="#fff">Orders</text>
    <text x="727" y="680" text-anchor="middle" font-size="9" fill="#888">order-service</text>
  </g>
  <g>
    <rect x="790" y="640" width="95" height="50" rx="4" fill="#1a1a2e"/>
    <text x="837" y="662" text-anchor="middle" font-size="11" font-weight="bold" fill="#fff">Chat</text>
    <text x="837" y="680" text-anchor="middle" font-size="9" fill="#888">chat-service</text>
  </g>
  <g>
    <rect x="900" y="640" width="95" height="50" rx="4" fill="#1a1a2e"/>
    <text x="947" y="662" text-anchor="middle" font-size="11" font-weight="bold" fill="#fff">LostFound</text>
    <text x="947" y="680" text-anchor="middle" font-size="9" fill="#888">lost-found</text>
  </g>
  <g>
    <rect x="1010" y="640" width="110" height="50" rx="4" fill="#1a1a2e"/>
    <text x="1065" y="662" text-anchor="middle" font-size="11" font-weight="bold" fill="#fff">Notifications</text>
    <text x="1065" y="680" text-anchor="middle" font-size="9" fill="#888">notification-svc</text>
  </g>

  <!-- Services -> DB (vertical, clean) -->
  <line x1="750" y1="185" x2="507" y2="640" stroke="#1a1a2e" stroke-width="1.2" marker-end="url(#arrD)"/>
  <line x1="930" y1="185" x2="617" y2="640" stroke="#1a1a2e" stroke-width="1.2" marker-end="url(#arrD)"/>
  <line x1="1110" y1="185" x2="727" y2="640" stroke="#1a1a2e" stroke-width="1.2" marker-end="url(#arrD)"/>
  <line x1="750" y1="275" x2="837" y2="640" stroke="#1a1a2e" stroke-width="1.2" marker-end="url(#arrD)"/>
  <line x1="1110" y1="275" x2="947" y2="640" stroke="#1a1a2e" stroke-width="1.2" marker-end="url(#arrD)"/>
  <line x1="930" y1="275" x2="1065" y2="640" stroke="#1a1a2e" stroke-width="1.2" marker-end="url(#arrD)"/>

  <!-- Redis -->
  <rect x="460" y="740" width="120" height="55" rx="6" fill="#dc382d"/>
  <text x="520" y="764" text-anchor="middle" font-size="12" font-weight="bold" fill="#fff">Redis Cache</text>
  <text x="520" y="782" text-anchor="middle" font-size="9" fill="#ffcccc">Session · Pub/Sub</text>

  <!-- Kafka -->
  <rect x="610" y="740" width="120" height="55" rx="6" fill="#231f20"/>
  <text x="670" y="764" text-anchor="middle" font-size="12" font-weight="bold" fill="#fff">Kafka Broker</text>
  <text x="670" y="782" text-anchor="middle" font-size="9" fill="#ccc">Event Streaming · DLQ</text>

  <!-- Zookeeper -->
  <rect x="630" y="810" width="80" height="35" rx="4" fill="#231f20"/>
  <text x="670" y="832" text-anchor="middle" font-size="10" font-weight="bold" fill="#fff">Zookeeper</text>

  <!-- ElasticSearch -->
  <rect x="770" y="740" width="120" height="55" rx="6" fill="#00bfb3"/>
  <text x="830" y="764" text-anchor="middle" font-size="12" font-weight="bold" fill="#fff">ElasticSearch</text>
  <text x="830" y="782" text-anchor="middle" font-size="9" fill="#e0fff8">Full-text Search</text>

  <!-- Services -> Redis (dashed) -->
  <line x1="750" y1="275" x2="520" y2="740" stroke="#dc382d" stroke-width="1.2" stroke-dasharray="5,3" marker-end="url(#arrR)"/>
  <line x1="750" y1="275" x2="520" y2="740" stroke="#dc382d" stroke-width="1.2" stroke-dasharray="5,3" marker-end="url(#arrR)"/>

  <!-- Services -> Kafka (dashed) -->
  <line x1="1110" y1="185" x2="670" y2="740" stroke="#231f20" stroke-width="1.2" stroke-dasharray="5,3" marker-end="url(#arrK)"/>
  <line x1="930" y1="185" x2="670" y2="740" stroke="#231f20" stroke-width="1.2" stroke-dasharray="5,3" marker-end="url(#arrK)"/>
  <line x1="750" y1="185" x2="670" y2="740" stroke="#231f20" stroke-width="1.2" stroke-dasharray="5,3" marker-end="url(#arrK)"/>

  <!-- Kafka -> Notification (listen) -->
  <path d="M 670 795 L 670 870 L 1065 870 L 1065 740" fill="none" stroke="#231f20" stroke-width="1.2" stroke-dasharray="5,3" marker-end="url(#arrK)"/>
  <text x="870" y="863" text-anchor="middle" font-size="9" font-style="italic" fill="#555">Listen Events</text>

  <!-- Product -> ES -->
  <line x1="930" y1="185" x2="830" y2="740" stroke="#00bfb3" stroke-width="1.2" stroke-dasharray="5,3" marker-end="url(#arrT)"/>
  <text x="895" y="470" font-size="9" font-style="italic" fill="#00bfb3">Sync Index</text>

  <!-- ═══════════ ZONE: Monitoring ═══════════ -->
  <rect x="1240" y="85" width="320" height="460" rx="12" fill="#f3e8f9" stroke="#9673a6" stroke-width="1.5" stroke-dasharray="6,4" opacity="0.45"/>
  <text x="1400" y="110" text-anchor="middle" font-size="13" font-weight="bold" fill="#9673a6">Monitoring &amp; Logging</text>

  <!-- Prometheus -->
  <rect x="1270" y="150" width="130" height="55" rx="6" fill="#E7157B"/>
  <text x="1335" y="175" text-anchor="middle" font-size="12" font-weight="bold" fill="#fff">Prometheus</text>
  <text x="1335" y="193" text-anchor="middle" font-size="9" fill="#ffc0dd">Metrics Collection</text>

  <!-- Grafana -->
  <rect x="1420" y="150" width="130" height="55" rx="6" fill="#F46800"/>
  <text x="1485" y="175" text-anchor="middle" font-size="12" font-weight="bold" fill="#fff">Grafana</text>
  <text x="1485" y="193" text-anchor="middle" font-size="9" fill="#ffe0c0">Dashboard</text>

  <!-- Prometheus -> Grafana -->
  <line x1="1400" y1="177" x2="1420" y2="177" stroke="#E7157B" stroke-width="1.5" marker-end="url(#arr)"/>

  <!-- ELK Stack -->
  <rect x="1270" y="260" width="130" height="70" rx="6" fill="#00bfb3"/>
  <text x="1335" y="285" text-anchor="middle" font-size="12" font-weight="bold" fill="#fff">ELK Stack</text>
  <text x="1335" y="302" text-anchor="middle" font-size="9" fill="#e0fff8">Elasticsearch</text>
  <text x="1335" y="317" text-anchor="middle" font-size="9" fill="#e0fff8">Logstash · Kibana</text>

  <!-- Logstash Pipeline -->
  <rect x="1420" y="270" width="130" height="50" rx="6" fill="#00bfb3"/>
  <text x="1485" y="292" text-anchor="middle" font-size="12" font-weight="bold" fill="#fff">Logstash</text>
  <text x="1485" y="310" text-anchor="middle" font-size="9" fill="#e0fff8">Log Pipeline</text>

  <!-- ELK -> Logstash -->
  <line x1="1400" y1="295" x2="1420" y2="295" stroke="#00bfb3" stroke-width="1.5" marker-end="url(#arrT)"/>

  <!-- Services -> Monitoring -->
  <path d="M 1180 157 L 1220 157 L 1220 177 L 1270 177" fill="none" stroke="#9673a6" stroke-width="1.2" stroke-dasharray="5,3" marker-end="url(#arrP)"/>
  <text x="1225" y="148" font-size="9" font-style="italic" fill="#9673a6">Metrics</text>

  <path d="M 1180 185 L 1220 185 L 1220 295 L 1270 295" fill="none" stroke="#00bfb3" stroke-width="1.2" stroke-dasharray="5,3" marker-end="url(#arrT)"/>
  <text x="1225" y="250" font-size="9" font-style="italic" fill="#00bfb3">Logs</text>

  <!-- ═══════════ ZONE: External Services ═══════════ -->
  <rect x="1240" y="570" width="320" height="460" rx="12" fill="#e8f5e9" stroke="#82b366" stroke-width="1.5" stroke-dasharray="6,4" opacity="0.45"/>
  <text x="1400" y="595" text-anchor="middle" font-size="13" font-weight="bold" fill="#82b366">External Services</text>

  <!-- S3 -->
  <rect x="1270" y="630" width="130" height="60" rx="6" fill="#F58534"/>
  <text x="1335" y="655" text-anchor="middle" font-size="12" font-weight="bold" fill="#fff">S3 Bucket</text>
  <text x="1335" y="675" text-anchor="middle" font-size="9" fill="#ffe0c0">Image · Presigned Upload</text>

  <!-- Firebase -->
  <rect x="1420" y="630" width="130" height="60" rx="6" fill="#FFCA28"/>
  <text x="1485" y="655" text-anchor="middle" font-size="12" font-weight="bold" fill="#333">Firebase FCM</text>
  <text x="1485" y="675" text-anchor="middle" font-size="9" fill="#555">Push Notification</text>

  <!-- Email -->
  <rect x="1270" y="720" width="130" height="50" rx="6" fill="#232f3e"/>
  <text x="1335" y="745" text-anchor="middle" font-size="12" font-weight="bold" fill="#fff">Email / OTP</text>
  <text x="1335" y="760" text-anchor="middle" font-size="9" fill="#aaa">SMTP Service</text>

  <!-- Product -> S3 -->
  <path d="M 1180 157 L 1210 157 L 1210 660 L 1270 660" fill="none" stroke="#F58534" stroke-width="1.5" marker-end="url(#arrO)"/>
  <text x="1215" y="420" font-size="9" font-weight="bold" fill="#F58534">Presigned URL</text>

  <!-- Notification -> Firebase -->
  <path d="M 1000 275 L 1210 275 L 1210 660 L 1420 660" fill="none" stroke="#FFCA28" stroke-width="1.5" marker-end="url(#arrY)"/>
  <text x="1215" y="480" font-size="9" font-weight="bold" fill="#b8860b">Push</text>

  <!-- ═══════════ Legend ═══════════ -->
  <rect x="30" y="570" width="320" height="200" rx="8" fill="#fff" stroke="#ddd" stroke-width="1"/>
  <text x="190" y="595" text-anchor="middle" font-size="12" font-weight="bold" fill="#333">Legend</text>
  <line x1="50" y1="615" x2="100" y2="615" stroke="#F58534" stroke-width="2" marker-end="url(#arrO)"/>
  <text x="110" y="620" font-size="10" fill="#555">HTTP / API Call</text>
  <line x1="50" y1="640" x2="100" y2="640" stroke="#231f20" stroke-width="2" stroke-dasharray="5,3" marker-end="url(#arrK)"/>
  <text x="110" y="645" font-size="10" fill="#555">Kafka Event (async)</text>
  <line x1="50" y1="665" x2="100" y2="665" stroke="#dc382d" stroke-width="2" stroke-dasharray="5,3" marker-end="url(#arrR)"/>
  <text x="110" y="670" font-size="10" fill="#555">Redis Cache / Pub-Sub</text>
  <line x1="50" y1="690" x2="100" y2="690" stroke="#1a1a2e" stroke-width="2" marker-end="url(#arrD)"/>
  <text x="110" y="695" font-size="10" fill="#555">Database Read/Write</text>
  <line x1="50" y1="715" x2="100" y2="715" stroke="#00bfb3" stroke-width="2" stroke-dasharray="5,3" marker-end="url(#arrT)"/>
  <text x="110" y="720" font-size="10" fill="#555">Search Index Sync</text>
  <line x1="50" y1="740" x2="100" y2="740" stroke="#9673a6" stroke-width="2" stroke-dasharray="5,3" marker-end="url(#arrP)"/>
  <text x="110" y="745" font-size="10" fill="#555">Monitoring / Logs</text>

</svg>
